#!OML:ASF X:\für Bonn\!DataBase\2005_08_11_Bastian_Final\c3d\Bastian.ASF
:FULLY-SPECIFIED
:DEGREES
526
root 1.33404 1.16491 25.359 -809.838 -175.198 -717.407
lowerback 2.58281 -1.37331 -3.51193
upperback 12.7381 -2.83711 -1.23863
thorax 12.3618 -2.29562 0.238276
lowerneck 3.86541 -2.80802 -6.88526
upperneck 23.1376 -0.944847 -2.89319
head 6.50695 -0.121146 0.314055
rclavicle -4.85035e-014 1.70955e-014
rhumerus -42.9319 46.9409 -86.6163
rradius 36.0937
rwrist 4.9693
rhand -18.5689 4.47
rfingers 7.12502
rthumb 7.72129 -25.369
lclavicle -4.85035e-014 1.70955e-014
lhumerus -34.6445 -33.4308 84.588
lradius 27.0229
lwrist 12.7499
lhand -20.1275 -12.3903
lfingers 7.12502
lthumb 6.21676 17.4985
rfemur -14.0524 8.76803 18.1942
rtibia 34.6841
rfoot -1.39646 -14.1221
rtoes -0.863653
lfemur -5.70069 1.76432 -24.1779
ltibia 17.4125
lfoot 4.6284 -4.25392
ltoes -29.7363
527
root 1.3356 1.16787 25.3588 -809.827 -175.198 -717.418
lowerback 2.42928 -1.42654 -3.56345
upperback 12.475 -2.8524 -1.20071
thorax 12.1489 -2.27689 0.319301
lowerneck 3.59793 -2.79028 -6.83171
upperneck 23.1918 -0.930819 -2.8675
head 6.56765 -0.123019 0.312085
rclavicle 1.63003e-014 2.0276e-014
rhumerus -43.3922 47.4626 -87.1143
rradius 35.6481
rwrist 4.36696
rhand -18.3325 4.27819
rfingers 7.12502
rthumb 7.94941 -25.5523
lclavicle 1.63003e-014 2.0276e-014
lhumerus -34.9051 -34.0112 84.9977
lradius 26.7107
lwrist 13.1344
lhand -19.5886 -12.5459
lfingers 7.12502
lthumb 6.73701 17.3269
rfemur -13.949 9.00234 18.1985
rtibia 34.6155
rfoot -1.74723 -14.4612
rtoes -0.619892
lfemur -5.59805 1.78826 -24.1112
ltibia 17.3007
lfoot 4.52743 -3.73028
ltoes -29.6878
528
root 1.33723 1.17101 25.3574 -809.803 -175.221 -717.437
lowerback 2.26691 -1.46337 -3.57828
upperback 12.2067 -2.84707 -1.16123
thorax 11.9336 -2.2442 0.38285
lowerneck 3.36652 -2.78522 -6.78942
upperneck 23.2208 -0.948955 -2.79851
head 6.61493 -0.138208 0.324453
rclavicle 8.34896e-015 -1.13307e-014
rhumerus -43.8265 47.8393 -87.5633
rradius 35.1868
rwrist 3.95109
rhand -18.0575 4.14933
rfingers 7.12502
rthumb 8.2148 -25.671
lclavicle 8.34896e-015 -1.13307e-014
lhumerus -35.1848 -34.6472 85.4154
lradius 26.4006
lwrist 13.5378
lhand -19.0407 -12.7915
lfingers 7.12502
lthumb 7.26585 17.0638
rfemur -13.8651 9.22794 18.2193
rtibia 34.5489
rfoot -2.14113 -14.8049
rtoes -0.186008
lfemur -5.50755 1.86756 -24.017
ltibia 17.1868
lfoot 4.42433 -3.24359
ltoes -29.926
529
root 1.33923 1.17411 25.3563 -809.781 -175.221 -717.458
lowerback 2.08554 -1.50192 -3.64318
upperback 11.963 -2.84613 -1.11624
thorax 11.7639 -2.22221 0.476108
lowerneck 3.05556 -2.78105 -6.72575
upperneck 23.2615 -0.963088 -2.75359
head 6.67908 -0.155216 0.325008
rclavicle 2.46493e-014 5.96354e-016
rhumerus -44.115 48.1827 -87.9232
rradius 34.6727
rwrist 3.60013
rhand -17.7037 4.03388
rfingers 7.12502
rthumb 8.55626 -25.7728
lclavicle 2.46493e-014 5.96354e-016
lhumerus -35.4298 -35.2808 85.8334
lradius 26.086
lwrist 13.9072
lhand -18.4589 -12.984
lfingers 7.12502
lthumb 7.82742 16.8512
rfemur -13.782 9.45322 18.2164
rtibia 34.4858
rfoot -2.50587 -15.1141
rtoes 0.15291
lfemur -5.41265 1.8642 -23.9457
ltibia 17.0748
lfoot 4.34509 -2.6275
ltoes -29.8827
530
root 1.34058 1.17728 25.3547 -809.757 -175.244 -717.47
lowerback 1.92066 -1.54292 -3.65529
upperback 11.7131 -2.85148 -1.08189
thorax 11.5743 -2.19732 0.529035
lowerneck 2.76306 -2.78319 -6.58945
upperneck 23.2919 -0.980882 -2.76131
head 6.73536 -0.170908 0.296202
rclavicle -1.74931e-014 -1.07344e-014
rhumerus -44.4792 48.5286 -88.3572
rradius 34.2048
rwrist 3.28207
rhand -17.3834 3.90751
rfingers 7.12502
rthumb 8.86539 -25.8863
lclavicle -1.74931e-014 -1.07344e-014
lhumerus -35.715 -35.9272 86.2478
lradius 25.8232
lwrist 14.2877
lhand -17.9071 -13.1403
lfingers 7.12502
lthumb 8.35995 16.6743
rfemur -13.7062 9.67303 18.2356
rtibia 34.421
rfoot -2.90022 -15.4497
rtoes 0.625074
lfemur -5.3383 1.90176 -23.8494
ltibia 16.9798
lfoot 4.26267 -2.08115
ltoes -29.9185
531
root 1.34172 1.17983 25.3528 -809.734 -175.27 -717.499
lowerback 1.75408 -1.57261 -3.67158
upperback 11.4809 -2.84617 -1.03714
thorax 11.4078 -2.17087 0.594496
lowerneck 2.44081 -2.78557 -6.50128
upperneck 23.3219 -1.00953 -2.71316
head 6.79795 -0.193828 0.292541
rclavicle 2.22639e-014 -6.75868e-015
rhumerus -44.7933 48.868 -88.7512
rradius 33.7221
rwrist 2.9279
rhand -17.0396 3.83669
rfingers 7.12502
rthumb 9.19718 -25.9427
lclavicle 2.22639e-014 -6.75868e-015
lhumerus -35.9548 -36.5129 86.6353
lradius 25.5247
lwrist 14.5732
lhand -17.4336 -13.214
lfingers 7.12502
lthumb 8.8169 16.5819
rfemur -13.6378 9.8074 18.2524
rtibia 34.3606
rfoot -3.21388 -15.7706
rtoes 0.801898
lfemur -5.25888 1.9232 -23.7462
ltibia 16.8871
lfoot 4.19501 -1.45448
ltoes -29.6341
532
root 1.34384 1.18219 25.351 -809.71 -175.316 -717.512
lowerback 1.58018 -1.60502 -3.67686
upperback 11.2625 -2.8483 -0.984284
thorax 11.263 -2.14935 0.660194
lowerneck 2.08568 -2.77975 -6.40095
upperneck 23.3503 -1.02586 -2.67496
head 6.86537 -0.212023 0.283846
rclavicle 3.18055e-014 3.97569e-016
rhumerus -45.0284 49.1563 -89.0749
rradius 33.2503
rwrist 2.69357
rhand -16.6945 3.74729
rfingers 7.12502
rthumb 9.53012 -26.0172
lclavicle 3.18055e-014 3.97569e-016
lhumerus -36.1365 -37.0354 86.9769
lradius 25.2071
lwrist 14.8051
lhand -16.9949 -13.2169
lfingers 7.12502
lthumb 9.2403 16.5607
rfemur -13.5691 10.0171 18.2953
rtibia 34.3038
rfoot -3.57534 -16.2466
rtoes 0.891276
lfemur -5.19665 1.96933 -23.6204
ltibia 16.7994
lfoot 4.15066 -0.892821
ltoes -29.5412
533
root 1.34511 1.18492 25.3482 -809.699 -175.316 -717.521
lowerback 1.40954 -1.63687 -3.7042
upperback 11.06 -2.84922 -0.959389
thorax 11.135 -2.12966 0.706937
lowerneck 1.7072 -2.78069 -6.27534
upperneck 23.3752 -1.05605 -2.63471
head 6.93558 -0.236396 0.270399
rclavicle -1.19271e-014 4.37326e-015
rhumerus -45.3614 49.5489 -89.5213
rradius 32.8287
rwrist 2.3098
rhand -16.4094 3.64628
rfingers 7.12502
rthumb 9.80518 -26.1054
lclavicle -1.19271e-014 4.37326e-015
lhumerus -36.3794 -37.6757 87.3469
lradius 24.9719
lwrist 15.154
lhand -16.6354 -13.0598
lfingers 7.12502
lthumb 9.58718 16.7021
rfemur -13.5048 10.0915 18.2753
rtibia 34.2521
rfoot -3.8952 -16.6129
rtoes 0.945182
lfemur -5.1168 1.97631 -23.5458
ltibia 16.7152
lfoot 4.09461 -0.302409
ltoes -29.1736
534
root 1.34674 1.18785 25.3465 -809.653 -175.336 -717.553
lowerback 1.22832 -1.65855 -3.73044
upperback 10.8306 -2.83472 -0.917708
thorax 10.9831 -2.10099 0.773283
lowerneck 1.37585 -2.78138 -6.17218
upperneck 23.3744 -1.09008 -2.58821
head 6.99002 -0.262183 0.262647
rclavicle -3.33958e-014 -1.98785e-015
rhumerus -45.7467 49.9221 -89.9769
rradius 32.4339
rwrist 1.93773
rhand -16.1066 3.50823
rfingers 7.12502
rthumb 10.0973 -26.2295
lclavicle -3.33958e-014 -1.98785e-015
lhumerus -36.6248 -38.1954 87.7246
lradius 24.6929
lwrist 15.3549
lhand -16.3702 -12.7367
lfingers 7.12502
lthumb 9.84298 17.0133
rfemur -13.4781 10.1412 18.2755
rtibia 34.1972
rfoot -4.15389 -16.9585
rtoes 0.757633
lfemur -5.09378 2.02166 -23.4547
ltibia 16.6493
lfoot 4.02516 0.24728
ltoes -29.0858
535
root 1.34852 1.19076 25.3441 -809.653 -175.36 -717.572
lowerback 1.07823 -1.68243 -3.77011
upperback 10.6444 -2.83337 -0.856212
thorax 10.8657 -2.08642 0.865517
lowerneck 0.940545 -2.78875 -6.09835
upperneck 23.4137 -1.11986 -2.56809
head 7.07654 -0.293476 0.250603
rclavicle 2.22639e-014 4.17448e-015
rhumerus -46.0652 50.2901 -90.3506
rradius 32.0713
rwrist 1.5621
rhand -15.8789 3.40629
rfingers 7.12502
rthumb 10.317 -26.3207
lclavicle 2.22639e-014 4.17448e-015
lhumerus -36.8249 -38.6778 88.0878
lradius 24.4382
lwrist 15.5834
lhand -16.1313 -12.4139
lfingers 7.12502
lthumb 10.0735 17.3249
rfemur -13.4001 10.2222 18.2761
rtibia 34.1452
rfoot -4.51058 -17.352
rtoes 1.04308
lfemur -5.02079 2.07019 -23.3554
ltibia 16.5864
lfoot 3.96143 0.784745
ltoes -28.9711
536
root 1.35013 1.19292 25.3422 -809.618 -175.382 -717.575
lowerback 0.90958 -1.71339 -3.79163
upperback 10.4419 -2.83736 -0.819687
thorax 10.7388 -2.06964 0.920367
lowerneck 0.54134 -2.7905 -5.99417
upperneck 23.4311 -1.15358 -2.52401
head 7.14927 -0.32161 0.241015
rclavicle 1.03368e-014 -3.97569e-016
rhumerus -46.4398 50.6668 -90.8542
rradius 31.6993
rwrist 1.2013
rhand -15.7073 3.23115
rfingers 7.12502
rthumb 10.4825 -26.4875
lclavicle 1.03368e-014 -3.97569e-016
lhumerus -37.0935 -39.1745 88.4533
lradius 24.195
lwrist 15.7804
lhand -15.9222 -12.0685
lfingers 7.12502
lthumb 10.2752 17.6605
rfemur -13.3608 10.3336 18.269
rtibia 34.0866
rfoot -4.84447 -17.7765
rtoes 1.15836
lfemur -5.0078 2.0546 -23.2576
ltibia 16.5435
lfoot 3.88853 1.34986
ltoes -28.4543
537
root 1.35175 1.1957 25.3405 -809.605 -175.406 -717.603
lowerback 0.768166 -1.72738 -3.82755
upperback 10.2454 -2.82216 -0.774354
thorax 10.6034 -2.04663 0.994945
lowerneck 0.130567 -2.80169 -5.85003
upperneck 23.4573 -1.19669 -2.50833
head 7.22651 -0.352743 0.214672
rclavicle 1.43125e-014 -2.127e-014
rhumerus -46.9097 51.0546 -91.4062
rradius 31.4114
rwrist 0.762801
rhand -15.5406 3.0266
rfingers 7.12502
rthumb 10.6433 -26.6838
lclavicle 1.43125e-014 -2.127e-014
lhumerus -37.3322 -39.5931 88.7995
lradius 23.9531
lwrist 15.9325
lhand -15.7128 -11.6472
lfingers 7.12502
lthumb 10.4773 18.0717
rfemur -13.307 10.3333 18.2588
rtibia 34.0288
rfoot -5.10731 -18.091
rtoes 1.27913
lfemur -4.97234 2.05857 -23.1584
ltibia 16.515
lfoot 3.79971 1.88258
ltoes -28.0493
